<svg id="Layer_1" data-name="Layer 1" xmlns="http://www.w3.org/2000/svg" viewBox="0 0 697.04 144.86"><defs><style>.cls-1{font-size:10px;fill:#3768b1;font-family:Menlo-Regular, Menlo;}.cls-2{fill:none;stroke:#1d1d1b;stroke-miterlimit:10;}.cls-3{fill:#3b4e55;}.cls-10,.cls-23,.cls-3,.cls-8,.cls-9{fill-rule:evenodd;}.cls-4{fill:#0eaada;}.cls-5{fill:#2bb8eb;}.cls-6{fill:#078bb8;}.cls-7{fill:#009bc6;}.cls-8{fill:#00add4;}.cls-9{fill:#34bde9;}.cls-10,.cls-12{fill:#d5ecf0;}.cls-11{fill:#c0dce1;}.cls-13{fill:#d76616;}.cls-14{fill:#fff;}.cls-15{fill:#cd2265;}.cls-16{fill:#00b0ad;}.cls-17{fill:#fec910;}.cls-18{fill:#273c4e;}.cls-19{fill:#13110c;}.cls-20{fill:#f59d24;}.cls-21{fill:#010101;}.cls-22,.cls-23{fill:#734c99;}</style></defs><title>cloudwatch-to-syslog-server</title><text class="cls-1" transform="translate(62.69 8.65)">Docker<tspan x="0" y="12">awslogs</tspan><tspan x="0" y="24">driver</tspan></text><text class="cls-1" transform="translate(406.39 66.89)">cloudwatch_to_<tspan x="0" y="12">syslog_server</tspan></text><text class="cls-1" transform="translate(64.81 63.03)">AWS<tspan x="0" y="12">Lambda</tspan></text><text class="cls-1" transform="translate(61.94 123.46)">AWS ECS<tspan x="0" y="12">cluster</tspan></text><text class="cls-1" transform="translate(249.82 63.69)">AWS<tspan x="0" y="12">CloudWatch</tspan><tspan x="0" y="24">Logs</tspan></text><line class="cls-2" x1="109.7" y1="16.03" x2="193.91" y2="70.88"/><line class="cls-2" x1="109.77" y1="70.19" x2="193.91" y2="70.19"/><line class="cls-2" x1="317.53" y1="70.88" x2="399.69" y2="70.88"/><path class="cls-3" d="M101.89,63.3h5v5.1h2.53a11.41,11.41,0,0,0,3.46-.58,8.85,8.85,0,0,0,1.68-.75,6.08,6.08,0,0,1-1.15-3.24,6.79,6.79,0,0,1,1.24-4.78l.53-.62.62.49A8,8,0,0,1,119,64a7.48,7.48,0,0,1,5.8.53l.67.4-.36.71c-1.41,2.75-4.38,3.63-7.26,3.45-4.35,10.77-13.74,15.87-25.18,15.87-5.89,0-11.3-2.21-14.4-7.44l0-.09-.44-.93a14.49,14.49,0,0,1-1.15-7.36l.09-.75h4.25V63.3h5v-5h10v-5h6Z" transform="translate(-69.67 -50.96)"/><path class="cls-4" d="M118.11,65.21c.35-2.62-1.6-4.65-2.84-5.63-1.37,1.6-1.6,5.85.58,7.62a10.61,10.61,0,0,1-6.43,2.09h-32a13.4,13.4,0,0,0,1.33,7.44l.36.67c.22.4.48.75.75,1.15a35.25,35.25,0,0,0,3.63.09,18.81,18.81,0,0,0,5.32-.76.39.39,0,0,1,.49.23.37.37,0,0,1-.22.48,5.74,5.74,0,0,1-.58.18,16.42,16.42,0,0,1-3.68.58h-.26c-.58,0-1.2,0-1.86,0s-1.38,0-2.18,0c2.66,3,6.83,4.78,12.06,4.78,11.08,0,20.47-4.92,24.6-15.91,3,.31,5.8-.44,7.09-3A6.87,6.87,0,0,0,118.11,65.21Z" transform="translate(-69.67 -50.96)"/><path class="cls-5" d="M118.11,65.21c.35-2.62-1.6-4.65-2.84-5.63-1.37,1.6-1.6,5.85.58,7.62a10.61,10.61,0,0,1-6.43,2.09H79.28c-.13,4.21,1.42,7.4,4.21,9.3a18.85,18.85,0,0,0,5.32-.75.38.38,0,0,1,.49.22.39.39,0,0,1-.22.49c-.18,0-.36.13-.58.18a17.12,17.12,0,0,1-3.77.62l0,0c3.77,2,9.22,1.91,15.51-.49a44,44,0,0,0,18.13-13.69C118.24,65.16,118.15,65.16,118.11,65.21Z" transform="translate(-69.67 -50.96)"/><path class="cls-6" d="M77.47,72.61a12,12,0,0,0,1.28,4.12l.36.67c.22.4.48.75.75,1.15a35.25,35.25,0,0,0,3.63.09,18.81,18.81,0,0,0,5.32-.76.39.39,0,0,1,.49.23.37.37,0,0,1-.22.48,5.74,5.74,0,0,1-.58.18,17.12,17.12,0,0,1-3.77.62h-.17c-.58,0-1.2,0-1.82,0s-1.42,0-2.17,0c2.66,3,6.87,4.79,12.1,4.79,9.48,0,17.73-3.59,22.51-11.53H77.47Z" transform="translate(-69.67 -50.96)"/><path class="cls-7" d="M79.59,72.61a9.59,9.59,0,0,0,3.9,6,18.85,18.85,0,0,0,5.32-.75.38.38,0,0,1,.49.22.39.39,0,0,1-.22.49c-.18,0-.36.13-.58.18a17.11,17.11,0,0,1-3.81.62c3.77,2,9.22,1.9,15.47-.49a41.49,41.49,0,0,0,10.72-6.25Z" transform="translate(-69.67 -50.96)"/><path class="cls-8" d="M81.76,64.15h4.35v4.34H81.76Zm.36.35h.35v3.59h-.35Zm.62,0h.35v3.59h-.35Zm.66,0h.36v3.59H83.4Zm.67,0h.35v3.59h-.35Zm.66,0h.36v3.59h-.36Zm.67,0h.35v3.59H85.4Zm1.33-5.32h4.34v4.34H86.73Zm.4.36h.35v3.59h-.35Zm.62,0h.35v3.59h-.35Zm.66,0h.36v3.59h-.36Zm.67,0h.35v3.59h-.35Zm.62,0h.35v3.59H89.7Zm.66,0h.36v3.59h-.36Z" transform="translate(-69.67 -50.96)"/><path class="cls-9" d="M86.73,64.15h4.34v4.34H86.73Zm.4.35h.35v3.59h-.35Zm.62,0h.35v3.59h-.35Zm.66,0h.36v3.59h-.36Zm.67,0h.35v3.59h-.35Zm.62,0h.35v3.59H89.7Zm.66,0h.36v3.59h-.36Z" transform="translate(-69.67 -50.96)"/><path class="cls-8" d="M91.74,64.15h4.34v4.34H91.74Zm.35.35h.36v3.59h-.36Zm.67,0h.35v3.59h-.35Zm.66,0h.36v3.59h-.36Zm.62,0h.36v3.59H94Zm.67,0h.35v3.59h-.35Zm.66,0h.36v3.59h-.36Z" transform="translate(-69.67 -50.96)"/><path class="cls-9" d="M91.74,59.18h4.34v4.34H91.74Zm.35.36h.36v3.59h-.36Zm.67,0h.35v3.59h-.35Zm.66,0h.36v3.59h-.36Zm.62,0h.36v3.59H94Zm.67,0h.35v3.59h-.35Zm.66,0h.36v3.59h-.36Zm1.37,4.61h4.35v4.34H96.74Zm.36.35h.35v3.59H97.1Zm.66,0h.36v3.59h-.36Zm.62,0h.36v3.59h-.36Zm.67,0h.35v3.59h-.35Zm.66,0h.36v3.59h-.36Zm.67,0h.35v3.59h-.35Z" transform="translate(-69.67 -50.96)"/><path class="cls-8" d="M96.74,59.18h4.35v4.34H96.74Zm.36.36h.35v3.59H97.1Zm.66,0h.36v3.59h-.36Zm.62,0h.36v3.59h-.36Zm.67,0h.35v3.59h-.35Zm.66,0h.36v3.59h-.36Zm.67,0h.35v3.59h-.35Z" transform="translate(-69.67 -50.96)"/><path class="cls-9" d="M96.74,54.17h4.35v4.35H96.74Zm.36.36h.35v3.59H97.1Zm.66,0h.36v3.59h-.36Zm.62,0h.36v3.59h-.36Zm.67,0h.35v3.59h-.35Zm.66,0h.36v3.59h-.36Zm.67,0h.35v3.59h-.35Z" transform="translate(-69.67 -50.96)"/><path class="cls-8" d="M101.75,64.15h4.35v4.34h-4.35Zm.36.35h.35v3.59h-.35Zm.62,0h.35v3.59h-.35Zm.66,0h.36v3.59h-.36Zm.67,0h.35v3.59h-.35Zm.66,0h.36v3.59h-.36Zm.67,0h.35v3.59h-.35Z" transform="translate(-69.67 -50.96)"/><path class="cls-10" d="M90.81,75.49a1.2,1.2,0,1,1-1.2,1.2,1.19,1.19,0,0,1,1.2-1.2" transform="translate(-69.67 -50.96)"/><path class="cls-3" d="M90.81,75.85a.85.85,0,0,1,.31,0,.37.37,0,0,0-.18.31.38.38,0,0,0,.35.35.35.35,0,0,0,.31-.17.67.67,0,0,1,.05.31.84.84,0,0,1-.84.84.84.84,0,1,1,0-1.68m-21.14-2.8h55.57c-1.19-.31-3.81-.71-3.41-2.3-2.22,2.53-7.49,1.77-8.86.53-1.51,2.17-10.2,1.33-10.77-.35-1.87,2.21-7.67,2.21-9.53,0-.62,1.68-9.31,2.52-10.77.35-1.33,1.24-6.65,2-8.87-.53.49,1.55-2.17,2-3.36,2.3" transform="translate(-69.67 -50.96)"/><path class="cls-11" d="M94,84.13a10.65,10.65,0,0,1-5.5-5.4,19,19,0,0,1-3.94.62c-.58,0-1.2,0-1.82,0s-1.51,0-2.31,0c2.66,2.66,6,4.74,12.19,4.78Z" transform="translate(-69.67 -50.96)"/><path class="cls-12" d="M89.61,80.63a13.13,13.13,0,0,1-1.11-1.9,19,19,0,0,1-3.94.62A13.07,13.07,0,0,0,89.61,80.63Z" transform="translate(-69.67 -50.96)"/><rect id="Orange_Light_BG" data-name="Orange Light BG" class="cls-13" x="18.83" y="49.74" width="36.29" height="36.29"/><g id="Product_Icon-2" data-name="Product Icon-2"><path class="cls-14" d="M117.77,130.94h-6a.48.48,0,0,1-.44-.27L102.94,113H99.38a.49.49,0,0,1-.49-.48v-5.33a.49.49,0,0,1,.49-.48h7.45a.48.48,0,0,1,.43.28l8.39,17.62h2.12a.48.48,0,0,1,.48.49v5.32A.47.47,0,0,1,117.77,130.94Zm-5.66-1h5.18v-4.36h-1.94a.49.49,0,0,1-.44-.28l-8.39-17.62H99.87v4.35h3.38a.49.49,0,0,1,.44.28Z" transform="translate(-69.67 -50.96)"/><path class="cls-14" d="M101.79,130.94H95.5a.48.48,0,0,1-.41-.22.5.5,0,0,1,0-.49l6.58-13.74a.48.48,0,0,1,.43-.28h0a.48.48,0,0,1,.44.27l3.15,6.48a.51.51,0,0,1,0,.42l-3.44,7.26A.47.47,0,0,1,101.79,130.94Zm-5.51-1h5.21l3.2-6.78-2.6-5.39Z" transform="translate(-69.67 -50.96)"/></g><rect id="Orange_Light_BG-2" data-name="Orange Light BG" class="cls-13" x="11.78" y="102.06" width="42.81" height="42.81"/><g id="Product_Icon-2-2" data-name="Product Icon-2"><path class="cls-14" d="M102.73,189.79a.46.46,0,0,1-.3-.08l-13-7.48a.61.61,0,0,1-.31-.53V166.53a.61.61,0,0,1,.31-.53l11.94-6.88a.58.58,0,0,1,.8.14.62.62,0,0,1,.1.38v6.56a.6.6,0,0,1-.29.51l-6,3.43v8l6.73,3.89,5.88-3.42a.53.53,0,0,1,.57,0l5.66,3.25a.61.61,0,0,1,.31.52.57.57,0,0,1-.31.52L103,189.7A.52.52,0,0,1,102.73,189.79Zm-12.44-8.5L103,188.65,114,182.32l-4.57-2.63-6.06,3.51a.64.64,0,0,1-.63,0l-7.58-4.38a.6.6,0,0,1-.3-.52v-8.47a.58.58,0,0,1,.3-.52l6-3.42v-5.24l-10.84,6.27Z" transform="translate(-69.67 -50.96)"/><path class="cls-14" d="M115.94,181a.64.64,0,0,1-.3-.08L110,177.63a.58.58,0,0,1-.3-.52V170.2l-6-3.45a.59.59,0,0,1-.31-.52v-6.57a.57.57,0,0,1,.3-.51.58.58,0,0,1,.57,0l12,6.89a.62.62,0,0,1,.31.52v13.79a.61.61,0,0,1-.31.53A.58.58,0,0,1,115.94,181Zm-5.1-4.25,4.57,2.63V166.94l-10.85-6.28v5.21l6,3.47a.6.6,0,0,1,.3.52Z" transform="translate(-69.67 -50.96)"/></g><rect id="Pink_Light_BG" data-name="Pink Light BG" class="cls-15" x="201.36" y="50.99" width="40.24" height="40.24"/><g id="Product_Icon-2-3" data-name="Product Icon-2"><path class="cls-14" d="M287.92,127.69H282a3.21,3.21,0,0,1-1.68-.5,5.45,5.45,0,0,1-2.61-4.77,4.88,4.88,0,0,1,3.49-4.92v-.42a7.34,7.34,0,0,1,4.19-6.48,7,7,0,0,1,7.93,1.57,8,8,0,0,1,1.61,2.36,3.16,3.16,0,0,1,2-.69c1.46,0,3.1,1.1,3.4,3.53a5,5,0,0,1,4.21,5.1A4.81,4.81,0,0,1,302,127l-.53-.94a3.8,3.8,0,0,0,2-3.56,4.08,4.08,0,0,0-3.75-4.13.56.56,0,0,1-.35-.23.52.52,0,0,1-.09-.38c-.16-2-1.3-2.82-2.36-2.82a2.16,2.16,0,0,0-1.74.91.52.52,0,0,1-.51.21.55.55,0,0,1-.42-.35,7.43,7.43,0,0,0-1.68-2.75,6,6,0,0,0-6.72-1.33,6.3,6.3,0,0,0-3.54,5.47,6,6,0,0,0,0,.74.53.53,0,0,1-.43.6,3.87,3.87,0,0,0-3.1,4,4.36,4.36,0,0,0,2.1,3.86,2.13,2.13,0,0,0,1.12.34h5.9Z" transform="translate(-69.67 -50.96)"/><path class="cls-14" d="M304,130.91l-3.81-3.82a5.7,5.7,0,1,0-2.61,2.75l3.76,3.76a1.89,1.89,0,0,0,1.34.53,1.83,1.83,0,0,0,1.33-.53,1.9,1.9,0,0,0,0-2.68Zm-9-1.52a4.61,4.61,0,1,1,4.61-4.6,4.6,4.6,0,0,1-4.61,4.6Zm8.26,3.43a.84.84,0,0,1-1.16,0l-3.57-3.58a5.41,5.41,0,0,0,1.14-1.2l3.59,3.62A.82.82,0,0,1,303.21,132.82Z" transform="translate(-69.67 -50.96)"/><path class="cls-14" d="M296.42,122.29l-.63.86a1.81,1.81,0,0,0-2.87,1.72,1.75,1.75,0,0,0,.71,1.21l-.61.84a2.88,2.88,0,0,1,3.43-4.63Z" transform="translate(-69.67 -50.96)"/></g><rect class="cls-16" x="606.69" y="74.56" width="9.99" height="10.89"/><path class="cls-17" d="M662.74,107.36h-.91v18.16h11.8v-7.27A10.89,10.89,0,0,0,662.74,107.36Z" transform="translate(-69.67 -50.96)"/><path class="cls-18" d="M661.83,125.52h0a10.9,10.9,0,0,0,10.9,10.89h.9V125.52Z" transform="translate(-69.67 -50.96)"/><path class="cls-19" d="M696.28,126.05h-2V112.81h2Z" transform="translate(-69.67 -50.96)"/><path class="cls-19" d="M707.49,121.33a5.17,5.17,0,0,1-1.18,3.6,4.26,4.26,0,0,1-3.3,1.29,4.46,4.46,0,0,1-2.33-.59,4,4,0,0,1-1.56-1.71,5.91,5.91,0,0,1-.54-2.59,5.09,5.09,0,0,1,1.17-3.57,4.25,4.25,0,0,1,3.31-1.29,4.16,4.16,0,0,1,3.24,1.32A5.07,5.07,0,0,1,707.49,121.33Zm-6.85,0c0,2.17.8,3.26,2.41,3.26s2.38-1.09,2.38-3.26-.8-3.23-2.4-3.23a2.05,2.05,0,0,0-1.83.84A4.28,4.28,0,0,0,700.64,121.33Z" transform="translate(-69.67 -50.96)"/><path class="cls-19" d="M717.74,116.64v1.1l-1.61.3a2.49,2.49,0,0,1,.36.73,2.77,2.77,0,0,1,.15.92,2.83,2.83,0,0,1-1,2.29,4.23,4.23,0,0,1-2.76.83,4.11,4.11,0,0,1-.82-.07,1.14,1.14,0,0,0-.65.94.5.5,0,0,0,.31.48,2.54,2.54,0,0,0,1.11.17h1.64a3.63,3.63,0,0,1,2.36.66,2.33,2.33,0,0,1,.81,1.91,2.78,2.78,0,0,1-1.32,2.47,6.93,6.93,0,0,1-3.81.87,5.33,5.33,0,0,1-2.94-.68,2.2,2.2,0,0,1-1-1.94,2.08,2.08,0,0,1,.55-1.46,3,3,0,0,1,1.54-.82,1.53,1.53,0,0,1-.66-.55,1.42,1.42,0,0,1,0-1.69,3.2,3.2,0,0,1,.88-.72,2.68,2.68,0,0,1-1.19-1,3,3,0,0,1-.45-1.66,3,3,0,0,1,1-2.38,4.1,4.1,0,0,1,2.76-.84,6.38,6.38,0,0,1,.84.06,4.44,4.44,0,0,1,.66.11Zm-7.4,10.88a1.08,1.08,0,0,0,.58,1,3.15,3.15,0,0,0,1.64.35,4.83,4.83,0,0,0,2.43-.47,1.38,1.38,0,0,0,.8-1.24.92.92,0,0,0-.43-.87,3.6,3.6,0,0,0-1.63-.26h-1.52a2.1,2.1,0,0,0-1.36.4A1.33,1.33,0,0,0,710.34,127.52Zm.86-7.83a1.91,1.91,0,0,0,.45,1.36,1.73,1.73,0,0,0,1.31.48q1.74,0,1.74-1.86a2.17,2.17,0,0,0-.43-1.42,2,2,0,0,0-2.62,0A2.07,2.07,0,0,0,711.2,119.69Z" transform="translate(-69.67 -50.96)"/><path class="cls-19" d="M725.8,123.37a2.47,2.47,0,0,1-1,2.12,4.82,4.82,0,0,1-2.88.73,6.8,6.8,0,0,1-3-.57v-1.72a7.44,7.44,0,0,0,3.09.76c1.23,0,1.85-.37,1.85-1.11a.88.88,0,0,0-.21-.6,2.31,2.31,0,0,0-.67-.49,10.18,10.18,0,0,0-1.3-.58,6,6,0,0,1-2.2-1.26,2.36,2.36,0,0,1-.58-1.64,2.14,2.14,0,0,1,1-1.87,4.58,4.58,0,0,1,2.65-.67,7.47,7.47,0,0,1,3.14.67l-.65,1.51a7,7,0,0,0-2.56-.63c-1.05,0-1.58.3-1.58.9a.91.91,0,0,0,.41.75,9.21,9.21,0,0,0,1.8.84,8.37,8.37,0,0,1,1.7.83,2.27,2.27,0,0,1,1,2Z" transform="translate(-69.67 -50.96)"/><path class="cls-19" d="M731.47,124.61a5,5,0,0,0,1.47-.23v1.5a4.27,4.27,0,0,1-.86.25,6.38,6.38,0,0,1-1.08.09c-1.9,0-2.85-1-2.85-3v-5.07h-1.28v-.89l1.38-.73.68-2h1.23v2.09h2.68v1.52h-2.68v5a1.41,1.41,0,0,0,.36,1.07A1.32,1.32,0,0,0,731.47,124.61Z" transform="translate(-69.67 -50.96)"/><path class="cls-19" d="M740.71,126.05l-.4-1.31h-.07a3.76,3.76,0,0,1-1.37,1.17,4.29,4.29,0,0,1-1.77.31,3,3,0,0,1-2.17-.75,2.77,2.77,0,0,1-.78-2.11,2.49,2.49,0,0,1,1.08-2.2,6.32,6.32,0,0,1,3.3-.81l1.62,0v-.5a1.92,1.92,0,0,0-.42-1.35,1.69,1.69,0,0,0-1.3-.45,4.54,4.54,0,0,0-1.39.21,11,11,0,0,0-1.28.51l-.65-1.43a7,7,0,0,1,1.68-.61,7.68,7.68,0,0,1,1.72-.21,4.08,4.08,0,0,1,2.71.78,3.08,3.08,0,0,1,.92,2.46v6.34Zm-3-1.36a2.47,2.47,0,0,0,1.75-.61,2.19,2.19,0,0,0,.66-1.7v-.82l-1.21,0a4.13,4.13,0,0,0-2.06.47,1.43,1.43,0,0,0-.64,1.29,1.27,1.27,0,0,0,.37,1A1.62,1.62,0,0,0,737.73,124.69Z" transform="translate(-69.67 -50.96)"/><path class="cls-19" d="M751.25,123.37a2.47,2.47,0,0,1-1,2.12,4.82,4.82,0,0,1-2.88.73,6.8,6.8,0,0,1-3-.57v-1.72a7.44,7.44,0,0,0,3.09.76c1.23,0,1.85-.37,1.85-1.11a.88.88,0,0,0-.21-.6,2.47,2.47,0,0,0-.67-.49,10.87,10.87,0,0,0-1.3-.58,5.94,5.94,0,0,1-2.2-1.26,2.32,2.32,0,0,1-.58-1.64,2.14,2.14,0,0,1,1-1.87,4.58,4.58,0,0,1,2.65-.67,7.51,7.51,0,0,1,3.14.67l-.65,1.51a7,7,0,0,0-2.56-.63c-1.06,0-1.58.3-1.58.9a.88.88,0,0,0,.41.75,8.64,8.64,0,0,0,1.8.84,8,8,0,0,1,1.69.83,2.56,2.56,0,0,1,.79.86A2.52,2.52,0,0,1,751.25,123.37Z" transform="translate(-69.67 -50.96)"/><path class="cls-19" d="M761.69,126.05h-2v-5.78a2.56,2.56,0,0,0-.44-1.63,1.69,1.69,0,0,0-1.39-.54,2.24,2.24,0,0,0-1.86.76,4.17,4.17,0,0,0-.59,2.52v4.67h-2V112.81h2v3.36a15.2,15.2,0,0,1-.1,1.73h.13a2.82,2.82,0,0,1,1.13-1.06,3.7,3.7,0,0,1,1.7-.37q3.42,0,3.42,3.45Z" transform="translate(-69.67 -50.96)"/><path class="cls-20" d="M668.66,63.14l.17,0a35.27,35.27,0,0,0,3.88-1.42,14.54,14.54,0,0,0,3.57-2,7.72,7.72,0,0,0,2.5-3.53,3.56,3.56,0,0,0,.23-.72C677.27,57.75,670.4,58,670.4,58L672,56.51a22.77,22.77,0,0,0-13.16,4.26,12.39,12.39,0,0,1,7,3.12c.93-.29,1.88-.5,2.82-.74m10.78-.25a37.67,37.67,0,0,0-12.93,1.64,12.36,12.36,0,0,1,2.17,3.1c3.47-1.93,8.27-4.39,10.76-4.74m-10.32,5.73a12.43,12.43,0,0,1,.78,3.29l6-6.22Zm3.17,3.05v-.07a.09.09,0,0,0,0-.07.07.07,0,0,0-.06,0h0a.12.12,0,0,0,0-.1.13.13,0,0,0-.08-.13l-.13,0h-.17v.47H672v-.17h.16a.1.1,0,0,1,0,.1v.07h.09Zm-.27-.37h.06l.09,0a.06.06,0,0,1,0,.06.05.05,0,0,1,0,.06H672v-.14Z" transform="translate(-69.67 -50.96)"/><path class="cls-20" d="M672.4,71.18a.43.43,0,0,0-.6,0,.43.43,0,0,0,0,.6.42.42,0,0,0,.6,0h0a.43.43,0,0,0,0-.6m-.3.65a.31.31,0,0,1-.25-.1.37.37,0,0,1,0-.5.36.36,0,0,1,.49,0h0a.37.37,0,0,1,0,.5.31.31,0,0,1-.25.1" transform="translate(-69.67 -50.96)"/><path class="cls-21" d="M690.58,66.33a7.33,7.33,0,0,1-.39,2.46,4.94,4.94,0,0,1-1,1.75,4.39,4.39,0,0,1-1.52,1,5,5,0,0,1-1.8.34,7.19,7.19,0,0,1-1.47-.15,7.44,7.44,0,0,1-1.3-.38v4.16l-1,.22V61.45h.75l.26,1.49a7.1,7.1,0,0,1,1.41-1.21,3.37,3.37,0,0,1,1.89-.5,4.28,4.28,0,0,1,1.62.31,3.88,3.88,0,0,1,1.36.93,4.58,4.58,0,0,1,.92,1.6,6.93,6.93,0,0,1,.35,2.26Zm-1.08,0a4.76,4.76,0,0,0-.9-3.14,2.87,2.87,0,0,0-2.29-1.06,3.07,3.07,0,0,0-1.72.49,7.74,7.74,0,0,0-1.53,1.38v6.33a5.39,5.39,0,0,0,1.29.47,6,6,0,0,0,1.46.17,3.85,3.85,0,0,0,1.45-.28,3,3,0,0,0,1.17-.85,4.29,4.29,0,0,0,.78-1.46,6.48,6.48,0,0,0,.29-2.05Zm10.2,5.41-.25-1.39a7.82,7.82,0,0,1-1.73,1.16,4.4,4.4,0,0,1-3.13.28,3,3,0,0,1-1-.49,2.44,2.44,0,0,1-.68-.85,2.87,2.87,0,0,1-.24-1.23,3.2,3.2,0,0,1,.35-1.52,3.05,3.05,0,0,1,1.14-1.17,7.14,7.14,0,0,1,2.08-.81,22.58,22.58,0,0,1,3.16-.5v-.92a2,2,0,0,0-.61-1.62,2.42,2.42,0,0,0-1.68-.53,6.39,6.39,0,0,0-1.79.25,8.46,8.46,0,0,0-1.75.68l-.13-1a12.64,12.64,0,0,1,1.78-.65,7.43,7.43,0,0,1,1.94-.25,3.39,3.39,0,0,1,2.41.78,3,3,0,0,1,.85,2.26v7.49Zm-.28-5.68a22.34,22.34,0,0,0-2.7.44,7.71,7.71,0,0,0-1.74.63,2.13,2.13,0,0,0-1.24,2,1.72,1.72,0,0,0,.62,1.46,2.41,2.41,0,0,0,1.49.48,4.09,4.09,0,0,0,1.78-.46,7.39,7.39,0,0,0,1.78-1.19Zm12.86.22a7.07,7.07,0,0,1-.38,2.46,5,5,0,0,1-1,1.75,4.26,4.26,0,0,1-1.51,1,5.1,5.1,0,0,1-1.81.34,7.16,7.16,0,0,1-1.46-.15,7.54,7.54,0,0,1-1.31-.38v4.16l-1,.22V61.45h.74l.26,1.49a7.4,7.4,0,0,1,1.41-1.21,3.42,3.42,0,0,1,1.89-.5,4.25,4.25,0,0,1,1.62.31,3.63,3.63,0,0,1,1.36.93,4.65,4.65,0,0,1,.92,1.58A6.83,6.83,0,0,1,712.28,66.33Zm-1.08,0a4.76,4.76,0,0,0-.9-3.14A2.84,2.84,0,0,0,708,62.18a3.07,3.07,0,0,0-1.72.49,8.09,8.09,0,0,0-1.54,1.38v6.33a5.63,5.63,0,0,0,1.3.47,5.93,5.93,0,0,0,1.45.17,3.78,3.78,0,0,0,1.45-.28,3,3,0,0,0,1.19-.86,4.16,4.16,0,0,0,.78-1.45A6.46,6.46,0,0,0,711.2,66.38Zm11.55.24h-7.3a6.52,6.52,0,0,0,.23,1.81,4.39,4.39,0,0,0,.66,1.42,3,3,0,0,0,1.11.93,3.51,3.51,0,0,0,1.53.33,4.51,4.51,0,0,0,1.88-.44,7,7,0,0,0,1.71-1.15l.15,1a6.51,6.51,0,0,1-1.67,1.07A5.24,5.24,0,0,1,719,72a4.59,4.59,0,0,1-1.86-.38,4,4,0,0,1-1.44-1.06,5.07,5.07,0,0,1-.92-1.69,7.19,7.19,0,0,1-.33-2.26,7.05,7.05,0,0,1,.33-2.23,5,5,0,0,1,.92-1.7,4,4,0,0,1,3.15-1.46,3.49,3.49,0,0,1,3,1.52,5,5,0,0,1,.74,1.64,8,8,0,0,1,.25,2Zm-1.32-2.29a3.89,3.89,0,0,0-.56-1.16,2.7,2.7,0,0,0-.88-.8,2.49,2.49,0,0,0-1.2-.28,2.81,2.81,0,0,0-2.3,1,5,5,0,0,0-1,2.65h6.16a5.85,5.85,0,0,0-.23-1.43Zm7.75-1.85a5.15,5.15,0,0,0-1.09.63A5.51,5.51,0,0,0,726.53,65v6.8h-1V61.45h.68l.33,2.16a9.52,9.52,0,0,1,.68-.86A5.06,5.06,0,0,1,728,62a4.3,4.3,0,0,1,1-.55,3.32,3.32,0,0,1,1.17-.21l.17,1a3.94,3.94,0,0,0-1.21.28Zm8.7,9.43a6.31,6.31,0,0,1-1,0,5.75,5.75,0,0,1-1.43-.15,2.68,2.68,0,0,1-1.1-.53,2.35,2.35,0,0,1-.71-1,3.92,3.92,0,0,1-.25-1.52V63.31h-1.49V61.16h1.49V57.8l2.59-.4v3.77h2.18l.33,2.15H736v5a1.36,1.36,0,0,0,.32,1,1.44,1.44,0,0,0,1.09.35,3.84,3.84,0,0,0,.83-.09l.33,2.23-.7.1Zm6.64-7.67A5,5,0,0,0,743,65.69v6.1h-2.64V61.17h2.23l.34,2.14a5.93,5.93,0,0,1,1.35-1.6,3.36,3.36,0,0,1,2.06-.75l.42,2.6A4.84,4.84,0,0,0,744.52,64.24ZM754,71.79l-.23-1.39a5.63,5.63,0,0,1-1.48,1.14,4.29,4.29,0,0,1-2,.47,3.06,3.06,0,0,1-2.18-.79,2.83,2.83,0,0,1-.83-2.16,3.11,3.11,0,0,1,1.58-2.87A12.05,12.05,0,0,1,753.61,65v-.31a1.46,1.46,0,0,0-.47-1.22,2.23,2.23,0,0,0-1.37-.36,6.86,6.86,0,0,0-1.8.25,13.87,13.87,0,0,0-1.74.62l-.33-2.11a14.55,14.55,0,0,1,1.94-.61,10.37,10.37,0,0,1,2.29-.25,4.89,4.89,0,0,1,3.09.83,3.27,3.27,0,0,1,1,2.72v7.28Zm-.38-5.3a9.93,9.93,0,0,0-1.88.37,4,4,0,0,0-1.15.54,1.58,1.58,0,0,0-.75,1.37,1.18,1.18,0,0,0,.34.91,1.33,1.33,0,0,0,1,.32,2.92,2.92,0,0,0,1.3-.3,4.3,4.3,0,0,0,1.18-.84V66.49Zm8-8.6a1.43,1.43,0,0,1-.46,1.08,1.6,1.6,0,0,1-1.1.41A1.57,1.57,0,0,1,759,59a1.36,1.36,0,0,1-.46-1.08,1.41,1.41,0,0,1,.46-1.11,1.66,1.66,0,0,1,2.23,0A1.44,1.44,0,0,1,761.65,57.89Zm-2.9,13.9V61.17h2.64V71.79Zm5.32,0V56.33l2.64-.42V71.79Z" transform="translate(-69.67 -50.96)"/><path class="cls-14" d="M683.76,177l-6.59,1.2a3.45,3.45,0,0,1-.77.68,2.34,2.34,0,0,1-1.88.17,4.72,4.72,0,0,1-.75-.24l-1.61.22,1,8.16,11.31-2Zm-10.06,9.41-.09-.89,1.85-2.81,2.09.61,1.81-3,2.16,1.42,1.64-3.44.58,6.27Zm-.47-8a11.62,11.62,0,0,1-2-1.69c-.07,0-.06-.26-.06-.26a11.55,11.55,0,0,0,3.17,1.7,2.57,2.57,0,0,0,2-.17,5,5,0,0,0,1.53-1.35l.07.12a2.67,2.67,0,0,1-.26.62,1.89,1.89,0,0,0,.45.17l1.21-.19a3.67,3.67,0,0,0,.42-2.91,8.68,8.68,0,0,0-1.25-1.91c-.25-.24,0-1.16-.45-2.16a9.8,9.8,0,0,0-2.46-2.65,6.79,6.79,0,0,1,1.74,1.16c0-.07.06-.39.11-.47a3.38,3.38,0,0,1-.46-1.82,3,3,0,0,0-.25-1,1.68,1.68,0,0,1,.53.92,3.73,3.73,0,0,0,.78,1.69c.7.87,1.32,1.31,1.64,1s-.38-2.1-1.36-3.06c-1.14-1.12-1.44-1-2.11-.74s-.82,1.71-2.21,1.68c-.24,0-.85,0-1.15,0,.16-.22.3-.39.3-.39a7.22,7.22,0,0,0-.87.43l0-.05a2.3,2.3,0,0,1,.28-.46,7.32,7.32,0,0,0-.71.49,1.06,1.06,0,0,1,.29-.55,2.24,2.24,0,0,0-1.07.75,6.39,6.39,0,0,0-1.39.55,2.47,2.47,0,0,1-1.7-1.08,1.08,1.08,0,0,0-1.39-.28c-.8.33-1.82.79-1.82.79a6.56,6.56,0,0,1,.68,0,10.2,10.2,0,0,0-.93.42h.5a5.67,5.67,0,0,1-.47.35,5.93,5.93,0,0,0-.79.68,4.11,4.11,0,0,1,.56-.21c-.18.42-.55.73-.48,1.25a4,4,0,0,0,1.39,2c.06.06,1.08,1,1.85.61s1.07-.73,1.2-1.26a4.78,4.78,0,0,0-.25-2.38c-.11-.44-.38-1.33-.51-1.76l0,0a22.47,22.47,0,0,1,1.15,2.86c.41,1.47.28,2.21.1,2.49a2.13,2.13,0,0,1-2.65.47,5.35,5.35,0,0,0,.38,2.62,3.31,3.31,0,0,0,.2,1.15,1.39,1.39,0,0,1,.15-.52,3.44,3.44,0,0,0,.23.88,1.71,1.71,0,0,1,.08-.55,4.54,4.54,0,0,0,.34.44,2.56,2.56,0,0,0,.37.73,2,2,0,0,1,0-.46,3.1,3.1,0,0,1,.76,2.05c.17,1.77-2.79,3.18-3.36,4.28a1.74,1.74,0,0,0,0,2.3c1.78,1.48,1.1,1.89,2,2.53a2.42,2.42,0,0,0,3.26-.23,3,3,0,0,0,.27-2.85,4.7,4.7,0,0,0-1.48-2.3,3.16,3.16,0,0,0-2-.48l.05-.06a3.3,3.3,0,0,1,2.4.34,4.33,4.33,0,0,1,1.76,2.52c.39,0,.45-.08.81-.13l-.82-6.39Zm4.12-8c.76.35.66,1,.68,1.42a1.85,1.85,0,0,1,0,.24,1,1,0,0,0-.54-.09.83.83,0,0,0-.22,0,1.59,1.59,0,0,1-.6-.76l0-.08,0,0v0c-.09-.26,0-.32,0-.4s.17-.15,0-.22h-.07A.78.78,0,0,1,677.35,170.41Zm-.93,4.39a4.34,4.34,0,0,1,1.44-.4,2.86,2.86,0,0,1,.88,0c.2.11.2.45.07.76s-.48.95-.79,1a2.22,2.22,0,0,1-1.55-.62A.46.46,0,0,1,676.42,174.8Zm-4.85-3.42c.81-.55,1.86-.34,1.68-.17-.33.32.11.22.16.81a1.06,1.06,0,0,1-.23.81,4.89,4.89,0,0,0-.93.21,4.67,4.67,0,0,0-.58.23l-.15-.11A1.12,1.12,0,0,1,671.57,171.38Z" transform="translate(-69.67 -50.96)"/><path class="cls-22" d="M684.41,176.11l-.65.13-1.25-12.93-21.32,2.47,2.63,21.32,2.49-.37a5.78,5.78,0,0,0-1-1.07,1.74,1.74,0,0,1,0-2.3c.57-1.1,3.53-2.51,3.36-4.28a3.1,3.1,0,0,0-.76-2.05,2.1,2.1,0,0,0,0,.47,2.71,2.71,0,0,1-.37-.74,4.54,4.54,0,0,1-.34-.44,1.74,1.74,0,0,0-.08.55,3.44,3.44,0,0,1-.23-.88,1.39,1.39,0,0,0-.15.52,3.31,3.31,0,0,1-.2-1.15,5.35,5.35,0,0,1-.38-2.62,2.13,2.13,0,0,0,2.65-.47c.18-.28.31-1-.1-2.49a22.47,22.47,0,0,0-1.15-2.86l0,0c.13.43.4,1.32.51,1.76a4.78,4.78,0,0,1,.25,2.38c-.13.53-.43.87-1.2,1.26s-1.79-.55-1.85-.61a4,4,0,0,1-1.39-2c-.07-.52.3-.83.48-1.25a4.11,4.11,0,0,0-.56.21,5.93,5.93,0,0,1,.79-.68,5.67,5.67,0,0,0,.47-.35h-.5a10.2,10.2,0,0,1,.93-.42,6.56,6.56,0,0,0-.68,0s1-.46,1.82-.79a1.08,1.08,0,0,1,1.39.28,2.47,2.47,0,0,0,1.7,1.08,6.39,6.39,0,0,1,1.39-.55,2.24,2.24,0,0,1,1.07-.75,1.06,1.06,0,0,0-.29.55,7.32,7.32,0,0,1,.71-.49,2.3,2.3,0,0,0-.28.46l0,.05a7.22,7.22,0,0,1,.87-.43s-.14.17-.3.39c.3,0,.91,0,1.15,0,1.39,0,1.68-1.49,2.21-1.68s1-.38,2.11.74c1,1,1.74,2.68,1.36,3.06s-.94-.12-1.64-1a3.83,3.83,0,0,1-.78-1.69,1.68,1.68,0,0,0-.53-.92,3,3,0,0,1,.25,1,3.38,3.38,0,0,0,.46,1.82c0,.08-.07.4-.11.47a6.79,6.79,0,0,0-1.74-1.16,9.8,9.8,0,0,1,2.46,2.65c.49,1,.2,1.92.45,2.16a8.68,8.68,0,0,1,1.25,1.91,3.67,3.67,0,0,1-.42,2.91l-1.21.19a1.89,1.89,0,0,1-.45-.17,2.67,2.67,0,0,0,.26-.62l-.07-.12a4.91,4.91,0,0,1-1.53,1.35,2.57,2.57,0,0,1-2,.17,11.55,11.55,0,0,1-3.17-1.7s0,.21.05.26a12.15,12.15,0,0,0,2,1.69l-1.74.19.82,6.39c-.36.05-.42.08-.81.13a4.33,4.33,0,0,0-1.76-2.52,3.35,3.35,0,0,0-2.4-.34l-.05.06a3.07,3.07,0,0,1,2,.49,4.58,4.58,0,0,1,1.49,2.29,3,3,0,0,1-.27,2.85,2.43,2.43,0,0,1-3.23.26,2,2,0,0,0,1.35,1,2.6,2.6,0,0,0,2.28-.62,3.73,3.73,0,0,0,.68-2.66l.78-.11.28,2,12.8-1.54Zm-12.25,2.94,1.61-.22a3.88,3.88,0,0,0,.75.24,2.34,2.34,0,0,0,1.88-.17,3.45,3.45,0,0,0,.77-.68l6.6-1.2.67,8.15-11.31,2Zm9.36,2.7-2.16-1.42-1.81,3-2.09-.61-1.85,2.81.09.89,10-1.85-.58-6.27Zm-9.95-10.37a1.12,1.12,0,0,0-.05,1.78l.15.11a4.67,4.67,0,0,1,.58-.23,4.89,4.89,0,0,1,.93-.21,1.06,1.06,0,0,0,.23-.81c0-.59-.49-.49-.16-.81C673.43,171,672.38,170.83,671.57,171.38Zm4.9,4.14a2.22,2.22,0,0,0,1.55.62c.31,0,.59-.54.79-1s.13-.65-.06-.76a2.93,2.93,0,0,0-.89,0,4.34,4.34,0,0,0-1.44.4A.46.46,0,0,0,676.47,175.52Zm.15-4.4v0l0,0,0,.08a1.59,1.59,0,0,0,.6.76,1.66,1.66,0,0,1,.22,0,1,1,0,0,1,.54.09,1.85,1.85,0,0,0,0-.24c0-.4.08-1.07-.68-1.42a.78.78,0,0,0-.82.08h.07c.2.07.06.14,0,.22S676.53,170.86,676.62,171.12Z" transform="translate(-69.67 -50.96)"/><path class="cls-23" d="M694.59,181.81h-4.8v-11h4.8q5.17,0,5.18,5.22Q699.77,181.81,694.59,181.81ZM691.84,180h2.44q3.44,0,3.44-4,0-3.45-3.44-3.45h-2.44Z" transform="translate(-69.67 -50.96)"/><polygon class="cls-23" points="632.25 130.86 630.14 130.86 634.84 119.83 637.04 119.83 641.83 130.86 639.63 130.86 638.24 127.85 634.7 127.85 635.4 126.08 637.7 126.08 635.89 121.93 632.25 130.86"/><polygon class="cls-23" points="640.67 119.83 649.06 119.83 649.06 121.6 645.89 121.6 645.89 130.86 643.85 130.86 643.85 121.6 640.67 121.6 640.67 119.83"/><polygon class="cls-23" points="650.11 130.86 648.01 130.86 652.7 119.83 654.91 119.83 659.7 130.86 657.5 130.86 656.1 127.85 652.56 127.85 653.27 126.08 655.56 126.08 653.75 121.93 650.11 130.86"/><path class="cls-23" d="M735.52,181.81h-4.8v-11h4.8q5.18,0,5.18,5.22Q740.7,181.81,735.52,181.81ZM732.77,180h2.44q3.43,0,3.44-4,0-3.45-3.44-3.45h-2.44Z" transform="translate(-69.67 -50.96)"/><path class="cls-23" d="M742.08,176.31q0-5.61,5.56-5.61t5.46,5.61q0,5.58-5.46,5.58Q742.33,181.89,742.08,176.31Zm5.56,3.81c2.22,0,3.33-1.29,3.33-3.85s-1.11-3.79-3.33-3.79-3.43,1.26-3.43,3.79S745.35,180.12,747.64,180.12Z" transform="translate(-69.67 -50.96)"/><path class="cls-23" d="M761.65,177.35v2.58a4.89,4.89,0,0,1-1.27.19q-3.76,0-3.76-4,0-3.66,4-3.66a7.55,7.55,0,0,1,3.09.62v-1.86a9.1,9.1,0,0,0-3.24-.54c-4,0-6,1.82-6,5.44,0,3.84,2,5.75,5.85,5.75a8.34,8.34,0,0,0,3.34-.58v-5.77h-3.3l-.7,1.81Z" transform="translate(-69.67 -50.96)"/><line class="cls-2" x1="109.7" y1="125.34" x2="193.91" y2="70.49"/><line class="cls-2" x1="583.72" y1="15.45" x2="499.5" y2="70.3"/><line class="cls-2" x1="583.64" y1="69.6" x2="499.5" y2="69.6"/><line class="cls-2" x1="583.72" y1="124.76" x2="499.5" y2="69.91"/></svg>
